<svg width="760" height="150" viewBox="0 0 760 150" xmlns="http://www.w3.org/2000/svg" role="img" aria-label="Kestrel — single-host eBPF runtime security">
  <rect width="760" height="150" fill="#160B0C"/>
  <g transform="translate(52,40) scale(1.05)">
    <path fill="#D6342B" d="M32 55 C31 41 24 24 5 12 C26 13 32 20 32 20 C32 20 38 13 59 12 C40 24 33 41 32 55 Z"/>
  </g>
  <g fill="#FBF3EF">
<g transform="translate(150.00,80.00) scale(0.02734,-0.02734)"><path d="M172 1556H530V709L942 1120H1358L811 606L1401 0H967L530 467V0H172Z"/></g>
<g transform="translate(187.24,80.00) scale(0.02734,-0.02734)"><path d="M1290 563V461H453Q466 335 544.0 272.0Q622 209 762 209Q875 209 993.5 242.5Q1112 276 1237 344V68Q1110 20 983.0 -4.5Q856 -29 729 -29Q425 -29 256.5 125.5Q88 280 88 559Q88 833 253.5 990.0Q419 1147 709 1147Q973 1147 1131.5 988.0Q1290 829 1290 563ZM922 682Q922 784 862.5 846.5Q803 909 707 909Q603 909 538.0 850.5Q473 792 457 682Z"/></g>
<g transform="translate(225.22,80.00) scale(0.02734,-0.02734)"><path d="M1047 1085V813Q932 861 825.0 885.0Q718 909 623 909Q521 909 471.5 883.5Q422 858 422 805Q422 762 459.5 739.0Q497 716 594 705L657 696Q932 661 1027.0 581.0Q1122 501 1122 330Q1122 151 990.0 61.0Q858 -29 596 -29Q485 -29 366.5 -11.5Q248 6 123 41V313Q230 261 342.5 235.0Q455 209 571 209Q676 209 729.0 238.0Q782 267 782 324Q782 372 745.5 395.5Q709 419 600 432L537 440Q298 470 202.0 551.0Q106 632 106 797Q106 975 228.0 1061.0Q350 1147 602 1147Q701 1147 810.0 1132.0Q919 1117 1047 1085Z"/></g>
<g transform="translate(258.55,80.00) scale(0.02734,-0.02734)"><path d="M563 1438V1120H932V864H563V389Q563 311 594.0 283.5Q625 256 717 256H901V0H594Q382 0 293.5 88.5Q205 177 205 389V864H27V1120H205V1438Z"/></g>
<g transform="translate(285.32,80.00) scale(0.02734,-0.02734)"><path d="M1004 815Q957 837 910.5 847.5Q864 858 817 858Q679 858 604.5 769.5Q530 681 530 516V0H172V1120H530V936Q599 1046 688.5 1096.5Q778 1147 903 1147Q921 1147 942.0 1145.5Q963 1144 1003 1139Z"/></g>
<g transform="translate(312.94,80.00) scale(0.02734,-0.02734)"><path d="M1290 563V461H453Q466 335 544.0 272.0Q622 209 762 209Q875 209 993.5 242.5Q1112 276 1237 344V68Q1110 20 983.0 -4.5Q856 -29 729 -29Q425 -29 256.5 125.5Q88 280 88 559Q88 833 253.5 990.0Q419 1147 709 1147Q973 1147 1131.5 988.0Q1290 829 1290 563ZM922 682Q922 784 862.5 846.5Q803 909 707 909Q603 909 538.0 850.5Q473 792 457 682Z"/></g>
<g transform="translate(350.92,80.00) scale(0.02734,-0.02734)"><path d="M172 1556H530V0H172Z"/></g>
  </g>
  <g fill="#9C8985">
<g transform="translate(151.00,108.00) scale(0.00708,-0.00708)"><path d="M973 1081V901Q894 947 814.0 970.0Q734 993 651 993Q526 993 464.5 952.5Q403 912 403 829Q403 754 449.0 717.0Q495 680 678 645L752 631Q889 605 959.5 527.0Q1030 449 1030 324Q1030 158 912.0 64.5Q794 -29 584 -29Q501 -29 410.0 -11.5Q319 6 213 41V231Q316 178 410.0 151.5Q504 125 588 125Q710 125 777.0 174.5Q844 224 844 313Q844 441 599 490L591 492L522 506Q363 537 290.0 610.5Q217 684 217 811Q217 972 326.0 1059.5Q435 1147 637 1147Q727 1147 810.0 1130.5Q893 1114 973 1081Z"/></g>
<g transform="translate(159.73,108.00) scale(0.00708,-0.00708)"><path d="M256 1120H727V143H1092V0H178V143H543V977H256ZM543 1556H727V1323H543Z"/></g>
<g transform="translate(168.46,108.00) scale(0.00708,-0.00708)"><path d="M1051 694V0H866V694Q866 845 813.0 916.0Q760 987 647 987Q518 987 448.5 895.5Q379 804 379 633V0H195V1120H379V952Q428 1048 512.0 1097.5Q596 1147 711 1147Q882 1147 966.5 1034.5Q1051 922 1051 694Z"/></g>
<g transform="translate(177.19,108.00) scale(0.00708,-0.00708)"><path d="M858 569Q858 776 790.5 883.5Q723 991 594 991Q459 991 388.0 883.5Q317 776 317 569Q317 362 388.5 253.5Q460 145 596 145Q723 145 790.5 254.0Q858 363 858 569ZM1042 72Q1042 -180 923.0 -310.0Q804 -440 573 -440Q497 -440 414.0 -426.0Q331 -412 248 -385V-203Q346 -249 426.0 -271.0Q506 -293 573 -293Q722 -293 790.0 -212.0Q858 -131 858 45V53V178Q814 84 738.0 38.0Q662 -8 553 -8Q357 -8 240.0 149.0Q123 306 123 569Q123 833 240.0 990.0Q357 1147 553 1147Q661 1147 736.0 1104.0Q811 1061 858 971V1116H1042Z"/></g>
<g transform="translate(185.92,108.00) scale(0.00708,-0.00708)"><path d="M639 406Q639 282 684.5 219.0Q730 156 819 156H1034V0H801Q636 0 545.5 106.0Q455 212 455 406V1423H160V1567H639Z"/></g>
<g transform="translate(194.65,108.00) scale(0.00708,-0.00708)"><path d="M1112 606V516H315V510Q315 327 410.5 227.0Q506 127 680 127Q768 127 864.0 155.0Q960 183 1069 240V57Q964 14 866.5 -7.5Q769 -29 678 -29Q417 -29 270.0 127.5Q123 284 123 559Q123 827 267.0 987.0Q411 1147 651 1147Q865 1147 988.5 1002.0Q1112 857 1112 606ZM928 660Q924 822 851.5 906.5Q779 991 643 991Q510 991 424.0 903.0Q338 815 322 659Z"/></g>
<g transform="translate(203.38,108.00) scale(0.00708,-0.00708)"><path d="M356 643H877V479H356Z"/></g>
<g transform="translate(212.11,108.00) scale(0.00708,-0.00708)"><path d="M1051 694V0H866V694Q866 845 813.0 916.0Q760 987 647 987Q518 987 448.5 895.5Q379 804 379 633V0H195V1556H379V952Q428 1048 512.0 1097.5Q596 1147 711 1147Q882 1147 966.5 1034.5Q1051 922 1051 694Z"/></g>
<g transform="translate(220.84,108.00) scale(0.00708,-0.00708)"><path d="M616 991Q476 991 404.0 882.0Q332 773 332 559Q332 346 404.0 236.5Q476 127 616 127Q757 127 829.0 236.5Q901 346 901 559Q901 773 829.0 882.0Q757 991 616 991ZM616 1147Q849 1147 972.5 996.0Q1096 845 1096 559Q1096 272 973.0 121.5Q850 -29 616 -29Q383 -29 260.0 121.5Q137 272 137 559Q137 845 260.0 996.0Q383 1147 616 1147Z"/></g>
<g transform="translate(229.57,108.00) scale(0.00708,-0.00708)"><path d="M973 1081V901Q894 947 814.0 970.0Q734 993 651 993Q526 993 464.5 952.5Q403 912 403 829Q403 754 449.0 717.0Q495 680 678 645L752 631Q889 605 959.5 527.0Q1030 449 1030 324Q1030 158 912.0 64.5Q794 -29 584 -29Q501 -29 410.0 -11.5Q319 6 213 41V231Q316 178 410.0 151.5Q504 125 588 125Q710 125 777.0 174.5Q844 224 844 313Q844 441 599 490L591 492L522 506Q363 537 290.0 610.5Q217 684 217 811Q217 972 326.0 1059.5Q435 1147 637 1147Q727 1147 810.0 1130.5Q893 1114 973 1081Z"/></g>
<g transform="translate(238.30,108.00) scale(0.00708,-0.00708)"><path d="M614 1438V1120H1032V977H614V369Q614 245 661.0 196.0Q708 147 825 147H1032V0H807Q600 0 515.0 83.0Q430 166 430 369V977H131V1120H430V1438Z"/></g>
<g transform="translate(255.76,108.00) scale(0.00708,-0.00708)"><path d="M1112 606V516H315V510Q315 327 410.5 227.0Q506 127 680 127Q768 127 864.0 155.0Q960 183 1069 240V57Q964 14 866.5 -7.5Q769 -29 678 -29Q417 -29 270.0 127.5Q123 284 123 559Q123 827 267.0 987.0Q411 1147 651 1147Q865 1147 988.5 1002.0Q1112 857 1112 606ZM928 660Q924 822 851.5 906.5Q779 991 643 991Q510 991 424.0 903.0Q338 815 322 659Z"/></g>
<g transform="translate(264.49,108.00) scale(0.00708,-0.00708)"><path d="M369 713V166H608Q784 166 859.0 227.5Q934 289 934 430Q934 576 855.0 644.5Q776 713 608 713ZM369 1327V877H604Q750 877 815.5 933.0Q881 989 881 1114Q881 1227 816.5 1277.0Q752 1327 604 1327ZM166 1493H608Q837 1493 961.0 1394.0Q1085 1295 1085 1114Q1085 977 1019.5 898.0Q954 819 823 799Q970 777 1053.5 673.5Q1137 570 1137 410Q1137 207 1004.0 103.5Q871 0 608 0H166Z"/></g>
<g transform="translate(273.22,108.00) scale(0.00708,-0.00708)"><path d="M399 1327V766H633Q773 766 851.5 840.0Q930 914 930 1047Q930 1180 852.0 1253.5Q774 1327 633 1327ZM197 1493H633Q883 1493 1012.0 1379.5Q1141 1266 1141 1047Q1141 826 1012.5 713.0Q884 600 633 600H399V0H197Z"/></g>
<g transform="translate(281.95,108.00) scale(0.00708,-0.00708)"><path d="M233 1493H1112V1323H436V883H1049V713H436V0H233Z"/></g>
<g transform="translate(299.41,108.00) scale(0.00708,-0.00708)"><path d="M1155 889Q1096 935 1035.0 956.0Q974 977 901 977Q729 977 638.0 869.0Q547 761 547 557V0H362V1120H547V901Q593 1020 688.5 1083.5Q784 1147 915 1147Q983 1147 1042.0 1130.0Q1101 1113 1155 1077Z"/></g>
<g transform="translate(308.14,108.00) scale(0.00708,-0.00708)"><path d="M195 424V1118H379V424Q379 273 432.5 202.0Q486 131 598 131Q728 131 797.0 222.5Q866 314 866 485V1118H1051V0H866V168Q817 71 732.5 21.0Q648 -29 535 -29Q363 -29 279.0 83.5Q195 196 195 424Z"/></g>
<g transform="translate(316.86,108.00) scale(0.00708,-0.00708)"><path d="M1051 694V0H866V694Q866 845 813.0 916.0Q760 987 647 987Q518 987 448.5 895.5Q379 804 379 633V0H195V1120H379V952Q428 1048 512.0 1097.5Q596 1147 711 1147Q882 1147 966.5 1034.5Q1051 922 1051 694Z"/></g>
<g transform="translate(325.59,108.00) scale(0.00708,-0.00708)"><path d="M614 1438V1120H1032V977H614V369Q614 245 661.0 196.0Q708 147 825 147H1032V0H807Q600 0 515.0 83.0Q430 166 430 369V977H131V1120H430V1438Z"/></g>
<g transform="translate(334.32,108.00) scale(0.00708,-0.00708)"><path d="M256 1120H727V143H1092V0H178V143H543V977H256ZM543 1556H727V1323H543Z"/></g>
<g transform="translate(343.05,108.00) scale(0.00708,-0.00708)"><path d="M676 1006Q710 1078 762.5 1112.5Q815 1147 889 1147Q1024 1147 1079.5 1042.5Q1135 938 1135 649V0H967V641Q967 878 940.5 935.5Q914 993 844 993Q764 993 734.5 931.5Q705 870 705 641V0H537V641Q537 881 508.5 937.0Q480 993 406 993Q333 993 304.5 931.5Q276 870 276 641V0H109V1120H276V1024Q309 1084 358.5 1115.5Q408 1147 471 1147Q547 1147 597.5 1112.0Q648 1077 676 1006Z"/></g>
<g transform="translate(351.78,108.00) scale(0.00708,-0.00708)"><path d="M1112 606V516H315V510Q315 327 410.5 227.0Q506 127 680 127Q768 127 864.0 155.0Q960 183 1069 240V57Q964 14 866.5 -7.5Q769 -29 678 -29Q417 -29 270.0 127.5Q123 284 123 559Q123 827 267.0 987.0Q411 1147 651 1147Q865 1147 988.5 1002.0Q1112 857 1112 606ZM928 660Q924 822 851.5 906.5Q779 991 643 991Q510 991 424.0 903.0Q338 815 322 659Z"/></g>
<g transform="translate(369.24,108.00) scale(0.00708,-0.00708)"><path d="M973 1081V901Q894 947 814.0 970.0Q734 993 651 993Q526 993 464.5 952.5Q403 912 403 829Q403 754 449.0 717.0Q495 680 678 645L752 631Q889 605 959.5 527.0Q1030 449 1030 324Q1030 158 912.0 64.5Q794 -29 584 -29Q501 -29 410.0 -11.5Q319 6 213 41V231Q316 178 410.0 151.5Q504 125 588 125Q710 125 777.0 174.5Q844 224 844 313Q844 441 599 490L591 492L522 506Q363 537 290.0 610.5Q217 684 217 811Q217 972 326.0 1059.5Q435 1147 637 1147Q727 1147 810.0 1130.5Q893 1114 973 1081Z"/></g>
<g transform="translate(377.97,108.00) scale(0.00708,-0.00708)"><path d="M1112 606V516H315V510Q315 327 410.5 227.0Q506 127 680 127Q768 127 864.0 155.0Q960 183 1069 240V57Q964 14 866.5 -7.5Q769 -29 678 -29Q417 -29 270.0 127.5Q123 284 123 559Q123 827 267.0 987.0Q411 1147 651 1147Q865 1147 988.5 1002.0Q1112 857 1112 606ZM928 660Q924 822 851.5 906.5Q779 991 643 991Q510 991 424.0 903.0Q338 815 322 659Z"/></g>
<g transform="translate(386.70,108.00) scale(0.00708,-0.00708)"><path d="M1061 57Q987 14 908.5 -7.5Q830 -29 748 -29Q488 -29 341.5 127.0Q195 283 195 559Q195 835 341.5 991.0Q488 1147 748 1147Q829 1147 906.0 1126.0Q983 1105 1061 1061V868Q988 933 914.5 962.0Q841 991 748 991Q575 991 482.0 879.0Q389 767 389 559Q389 352 482.5 239.5Q576 127 748 127Q844 127 920.0 156.5Q996 186 1061 248Z"/></g>
<g transform="translate(395.43,108.00) scale(0.00708,-0.00708)"><path d="M195 424V1118H379V424Q379 273 432.5 202.0Q486 131 598 131Q728 131 797.0 222.5Q866 314 866 485V1118H1051V0H866V168Q817 71 732.5 21.0Q648 -29 535 -29Q363 -29 279.0 83.5Q195 196 195 424Z"/></g>
<g transform="translate(404.16,108.00) scale(0.00708,-0.00708)"><path d="M1155 889Q1096 935 1035.0 956.0Q974 977 901 977Q729 977 638.0 869.0Q547 761 547 557V0H362V1120H547V901Q593 1020 688.5 1083.5Q784 1147 915 1147Q983 1147 1042.0 1130.0Q1101 1113 1155 1077Z"/></g>
<g transform="translate(412.89,108.00) scale(0.00708,-0.00708)"><path d="M256 1120H727V143H1092V0H178V143H543V977H256ZM543 1556H727V1323H543Z"/></g>
<g transform="translate(421.62,108.00) scale(0.00708,-0.00708)"><path d="M614 1438V1120H1032V977H614V369Q614 245 661.0 196.0Q708 147 825 147H1032V0H807Q600 0 515.0 83.0Q430 166 430 369V977H131V1120H430V1438Z"/></g>
<g transform="translate(430.35,108.00) scale(0.00708,-0.00708)"><path d="M858 360Q812 243 741 52Q642 -212 608 -270Q562 -348 493.0 -387.0Q424 -426 332 -426H184V-272H293Q374 -272 420.0 -225.0Q466 -178 537 18L104 1120H299L631 244L958 1120H1153Z"/></g>
  </g>
</svg>